# xmcd
#
# Track frame offsets:
# 150
# 17636
# 35183
# 57007
# 74166
# 97181
# 116323
# 133004
# 167627
# 186272
# 209527
# 226624
# 240274
# 257867
# 283509
# 304066
# 321188
#
# Disc length: 4474 seconds
#
#
# Revision: 2
# Processed by: cddbd v1.5.1PL0 Copyright (c) Steve Scherf et al.
# Submitted via: FreeRIP 2.52 
#
DISCID=f4117811
DTITLE=Chicago - The Very Best of Chicago
DYEAR=1900
DGENRE=
TTITLE0=If You Leave Me Now
TTITLE1=Saturday In The Park
TTITLE2=25 Or 6 To 4
TTITLE3=Stay The Night
TTITLE4=Hard To Say I'm Sorry/Get Away
TTITLE5=Street Player
TTITLE6=Niagara Falls
TTITLE7=I'm A Man
TTITLE8=Feelin' Stronger Everyday
TTITLE9=Take Me Back To Chicago
TTITLE10=You're The Inspiration
TTITLE11=Baby What A Big Surprise
TTITLE12=You're Not Alone
TTITLE13=Will You Still Love Me
TTITLE14=Wishing You Were Here
TTITLE15=You come To My Senses
TTITLE16=Dream A Little Dream Of Me
EXTD=
EXTT0=
EXTT1=
EXTT2=
EXTT3=
EXTT4=
EXTT5=
EXTT6=
EXTT7=
EXTT8=
EXTT9=
EXTT10=
EXTT11=
EXTT12=
EXTT13=
EXTT14=
EXTT15=
EXTT16=
PLAYORDER=
